<svg xmlns="http://www.w3.org/2000/svg" viewBox="0 0 512 512" style="enable-background:new 0 0 512 512" xml:space="preserve"><path d="M87.044 150.149 0 481.915h512l-87.045-331.766H301.012v-30.04h94.902c41.371 0 75.028-33.657 75.028-75.028V30.085H41.059v14.996c0 41.371 33.657 75.028 75.028 75.028h94.902v30.04H87.044zm29.042-60.031c-19.578 0-36.278-12.557-42.469-30.04h364.766c-6.19 17.483-22.891 30.04-42.469 30.04H116.086zM271.02 120.11v30.04h-30.04v-30.04h30.04zm130.797 60.032 71.307 271.781H38.876l71.307-271.781h291.634z"/><path d="M256 210.131c-58.394 0-105.901 47.506-105.901 105.899S197.606 421.93 256 421.93s105.901-47.507 105.901-105.9c0-58.392-47.507-105.899-105.901-105.899zm14.995 180.314v-74.413h-29.992v74.413c-34.699-6.981-60.913-37.691-60.913-74.414.001-41.856 34.053-75.907 75.909-75.907s75.909 34.052 75.909 75.907c.001 36.723-26.214 67.432-60.913 74.414z"/></svg>